{
	"asset":{
		"generator":"Khronos glTF Blender I/O v3.6.27",
		"version":"2.0"
	},
	"scene":0,
	"scenes":[
		{
			"name":"Scene",
			"nodes":[
				0,
				1,
				2,
				3,
				4,
				5,
				6
			]
		}
	],
	"nodes":[
		{
			"mesh":0,
			"name":"Rammer",
			"scale":[
				0.9393888711929321,
				0.9393888711929321,
				0.9393888711929321
			],
			"translation":[
				0,
				0.1876349151134491,
				0.06699192523956299
			]
		},
		{
			"mesh":1,
			"name":"Icosphere",
			"translation":[
				0,
				0.9729899764060974,
				0.06180282309651375
			]
		},
		{
			"mesh":2,
			"name":"Chassis",
			"translation":[
				0,
				0.1876349151134491,
				-0.05879596993327141
			]
		},
		{
			"mesh":3,
			"name":"Wheel2",
			"translation":[
				0,
				0.09049999713897705,
				0.06180282309651375
			]
		},
		{
			"mesh":4,
			"name":"Wheel3",
			"translation":[
				0,
				0.09049999713897705,
				-0.18819718062877655
			]
		},
		{
			"mesh":5,
			"name":"Wheel1",
			"translation":[
				0,
				0.09049999713897705,
				0.31180283427238464
			]
		},
		{
			"mesh":6,
			"name":"Wheel4",
			"translation":[
				0,
				0.09049999713897705,
				-0.43819716572761536
			]
		}
	],
	"materials":[
		{
			"doubleSided":true,
			"name":"Wood",
			"pbrMetallicRoughness":{
				"baseColorTexture":{
					"index":0
				},
				"metallicFactor":0,
				"roughnessFactor":0.5
			}
		},
		{
			"doubleSided":true,
			"name":"WoodEnd",
			"pbrMetallicRoughness":{
				"baseColorTexture":{
					"index":1
				},
				"metallicFactor":0,
				"roughnessFactor":0.5
			}
		},
		{
			"doubleSided":true,
			"name":"Brass",
			"pbrMetallicRoughness":{
				"baseColorTexture":{
					"index":2
				},
				"metallicFactor":0,
				"roughnessFactor":0.5
			}
		},
		{
			"doubleSided":true,
			"name":"Silver",
			"pbrMetallicRoughness":{
				"baseColorTexture":{
					"index":3
				},
				"metallicFactor":0,
				"roughnessFactor":0.5
			}
		},
		{
			"doubleSided":true,
			"name":"WoodPlanks",
			"pbrMetallicRoughness":{
				"baseColorTexture":{
					"index":4
				},
				"metallicFactor":0,
				"roughnessFactor":0.5
			}
		}
	],
	"meshes":[
		{
			"name":"Plane.003",
			"primitives":[
				{
					"attributes":{
						"POSITION":0,
						"NORMAL":1,
						"TEXCOORD_0":2
					},
					"indices":3,
					"material":0
				},
				{
					"attributes":{
						"POSITION":4,
						"NORMAL":5,
						"TEXCOORD_0":6
					},
					"indices":7,
					"material":1
				}
			]
		},
		{
			"name":"Icosphere",
			"primitives":[
				{
					"attributes":{
						"POSITION":8,
						"NORMAL":9,
						"TEXCOORD_0":10
					},
					"indices":11,
					"material":2
				},
				{
					"attributes":{
						"POSITION":12,
						"NORMAL":13,
						"TEXCOORD_0":14
					},
					"indices":15,
					"material":3
				}
			]
		},
		{
			"name":"Plane",
			"primitives":[
				{
					"attributes":{
						"POSITION":16,
						"NORMAL":17,
						"TEXCOORD_0":18
					},
					"indices":19,
					"material":0
				},
				{
					"attributes":{
						"POSITION":20,
						"NORMAL":21,
						"TEXCOORD_0":22
					},
					"indices":23,
					"material":2
				},
				{
					"attributes":{
						"POSITION":24,
						"NORMAL":25,
						"TEXCOORD_0":26
					},
					"indices":27,
					"material":4
				}
			]
		},
		{
			"name":"Cylinder",
			"primitives":[
				{
					"attributes":{
						"POSITION":28,
						"NORMAL":29,
						"TEXCOORD_0":30
					},
					"indices":31,
					"material":0
				},
				{
					"attributes":{
						"POSITION":32,
						"NORMAL":33,
						"TEXCOORD_0":34
					},
					"indices":35,
					"material":1
				}
			]
		},
		{
			"name":"Cylinder.001",
			"primitives":[
				{
					"attributes":{
						"POSITION":36,
						"NORMAL":37,
						"TEXCOORD_0":38
					},
					"indices":31,
					"material":0
				},
				{
					"attributes":{
						"POSITION":39,
						"NORMAL":40,
						"TEXCOORD_0":41
					},
					"indices":35,
					"material":1
				}
			]
		},
		{
			"name":"Cylinder.002",
			"primitives":[
				{
					"attributes":{
						"POSITION":42,
						"NORMAL":43,
						"TEXCOORD_0":44
					},
					"indices":31,
					"material":0
				},
				{
					"attributes":{
						"POSITION":45,
						"NORMAL":46,
						"TEXCOORD_0":47
					},
					"indices":35,
					"material":1
				}
			]
		},
		{
			"name":"Cylinder.003",
			"primitives":[
				{
					"attributes":{
						"POSITION":48,
						"NORMAL":49,
						"TEXCOORD_0":50
					},
					"indices":31,
					"material":0
				},
				{
					"attributes":{
						"POSITION":51,
						"NORMAL":52,
						"TEXCOORD_0":53
					},
					"indices":35,
					"material":1
				}
			]
		}
	],
	"textures":[
		{
			"sampler":0,
			"source":0
		},
		{
			"sampler":0,
			"source":1
		},
		{
			"sampler":0,
			"source":2
		},
		{
			"sampler":0,
			"source":3
		},
		{
			"sampler":0,
			"source":4
		}
	],
	"images":[
		{
			"bufferView":4,
			"mimeType":"image/png",
			"name":"Wood"
		},
		{
			"bufferView":9,
			"mimeType":"image/png",
			"name":"WoodEnd.psd"
		},
		{
			"bufferView":14,
			"mimeType":"image/png",
			"name":"Brass"
		},
		{
			"bufferView":19,
			"mimeType":"image/png",
			"name":"Silver"
		},
		{
			"bufferView":32,
			"mimeType":"image/png",
			"name":"WoodPlanks1"
		}
	],
	"accessors":[
		{
			"bufferView":0,
			"componentType":5126,
			"count":20,
			"max":[
				0.20563098788261414,
				0.48862406611442566,
				0.6605900526046753
			],
			"min":[
				-0.20563086867332458,
				0.044486403465270996,
				-0.24367135763168335
			],
			"type":"VEC3"
		},
		{
			"bufferView":1,
			"componentType":5126,
			"count":20,
			"type":"VEC3"
		},
		{
			"bufferView":2,
			"componentType":5126,
			"count":20,
			"type":"VEC2"
		},
		{
			"bufferView":3,
			"componentType":5123,
			"count":30,
			"type":"SCALAR"
		},
		{
			"bufferView":5,
			"componentType":5126,
			"count":4,
			"max":[
				0.20563098788261414,
				0.48862406611442566,
				0.6605900526046753
			],
			"min":[
				-0.20563086867332458,
				0.044486403465270996,
				0.6605900526046753
			],
			"type":"VEC3"
		},
		{
			"bufferView":6,
			"componentType":5126,
			"count":4,
			"type":"VEC3"
		},
		{
			"bufferView":7,
			"componentType":5126,
			"count":4,
			"type":"VEC2"
		},
		{
			"bufferView":8,
			"componentType":5123,
			"count":6,
			"type":"SCALAR"
		},
		{
			"bufferView":10,
			"componentType":5126,
			"count":60,
			"max":[
				0.14731386303901672,
				0.17318002879619598,
				0.154896542429924
			],
			"min":[
				-0.14731386303901672,
				-0.17318002879619598,
				-0.154896542429924
			],
			"type":"VEC3"
		},
		{
			"bufferView":11,
			"componentType":5126,
			"count":60,
			"type":"VEC3"
		},
		{
			"bufferView":12,
			"componentType":5126,
			"count":60,
			"type":"VEC2"
		},
		{
			"bufferView":13,
			"componentType":5123,
			"count":60,
			"type":"SCALAR"
		},
		{
			"bufferView":15,
			"componentType":5126,
			"count":84,
			"max":[
				0.010432220995426178,
				0.03589661046862602,
				0.22160795331001282
			],
			"min":[
				-0.01325064804404974,
				-0.032406941056251526,
				-0.21556955575942993
			],
			"type":"VEC3"
		},
		{
			"bufferView":16,
			"componentType":5126,
			"count":84,
			"type":"VEC3"
		},
		{
			"bufferView":17,
			"componentType":5126,
			"count":84,
			"type":"VEC2"
		},
		{
			"bufferView":18,
			"componentType":5123,
			"count":120,
			"type":"SCALAR"
		},
		{
			"bufferView":20,
			"componentType":5126,
			"count":168,
			"max":[
				0.40000006556510925,
				0.819399356842041,
				0.6785358190536499
			],
			"min":[
				-0.40000006556510925,
				-0.1437397003173828,
				-0.539213240146637
			],
			"type":"VEC3"
		},
		{
			"bufferView":21,
			"componentType":5126,
			"count":168,
			"type":"VEC3"
		},
		{
			"bufferView":22,
			"componentType":5126,
			"count":168,
			"type":"VEC2"
		},
		{
			"bufferView":23,
			"componentType":5123,
			"count":288,
			"type":"SCALAR"
		},
		{
			"bufferView":24,
			"componentType":5126,
			"count":20,
			"max":[
				0.33850178122520447,
				0.6768501996994019,
				0.4320716857910156
			],
			"min":[
				-0.3385017514228821,
				0.5047078132629395,
				-0.17554108798503876
			],
			"type":"VEC3"
		},
		{
			"bufferView":25,
			"componentType":5126,
			"count":20,
			"type":"VEC3"
		},
		{
			"bufferView":26,
			"componentType":5126,
			"count":20,
			"type":"VEC2"
		},
		{
			"bufferView":27,
			"componentType":5123,
			"count":30,
			"type":"SCALAR"
		},
		{
			"bufferView":28,
			"componentType":5126,
			"count":52,
			"max":[
				0.32511967420578003,
				0.819399356842041,
				0.15725436806678772
			],
			"min":[
				-0.3251214921474457,
				0.7513056397438049,
				0.08394324779510498
			],
			"type":"VEC3"
		},
		{
			"bufferView":29,
			"componentType":5126,
			"count":52,
			"type":"VEC3"
		},
		{
			"bufferView":30,
			"componentType":5126,
			"count":52,
			"type":"VEC2"
		},
		{
			"bufferView":31,
			"componentType":5123,
			"count":54,
			"type":"SCALAR"
		},
		{
			"bufferView":33,
			"componentType":5126,
			"count":32,
			"max":[
				0.4515000283718109,
				0.09050001949071884,
				0.09028548002243042
			],
			"min":[
				-0.4515000283718109,
				-0.09050001949071884,
				-0.09028548002243042
			],
			"type":"VEC3"
		},
		{
			"bufferView":34,
			"componentType":5126,
			"count":32,
			"type":"VEC3"
		},
		{
			"bufferView":35,
			"componentType":5126,
			"count":32,
			"type":"VEC2"
		},
		{
			"bufferView":36,
			"componentType":5123,
			"count":48,
			"type":"SCALAR"
		},
		{
			"bufferView":37,
			"componentType":5126,
			"count":16,
			"max":[
				0.4515000283718109,
				0.09050001949071884,
				0.09028548002243042
			],
			"min":[
				-0.4515000283718109,
				-0.09050001949071884,
				-0.09028548002243042
			],
			"type":"VEC3"
		},
		{
			"bufferView":38,
			"componentType":5126,
			"count":16,
			"type":"VEC3"
		},
		{
			"bufferView":39,
			"componentType":5126,
			"count":16,
			"type":"VEC2"
		},
		{
			"bufferView":40,
			"componentType":5123,
			"count":36,
			"type":"SCALAR"
		},
		{
			"bufferView":41,
			"componentType":5126,
			"count":32,
			"max":[
				0.4515000283718109,
				0.09050001949071884,
				0.09028548002243042
			],
			"min":[
				-0.4515000283718109,
				-0.09050001949071884,
				-0.09028548002243042
			],
			"type":"VEC3"
		},
		{
			"bufferView":42,
			"componentType":5126,
			"count":32,
			"type":"VEC3"
		},
		{
			"bufferView":43,
			"componentType":5126,
			"count":32,
			"type":"VEC2"
		},
		{
			"bufferView":44,
			"componentType":5126,
			"count":16,
			"max":[
				0.4515000283718109,
				0.09050001949071884,
				0.09028548002243042
			],
			"min":[
				-0.4515000283718109,
				-0.09050001949071884,
				-0.09028548002243042
			],
			"type":"VEC3"
		},
		{
			"bufferView":45,
			"componentType":5126,
			"count":16,
			"type":"VEC3"
		},
		{
			"bufferView":46,
			"componentType":5126,
			"count":16,
			"type":"VEC2"
		},
		{
			"bufferView":47,
			"componentType":5126,
			"count":32,
			"max":[
				0.4515000283718109,
				0.09050001949071884,
				0.09028548002243042
			],
			"min":[
				-0.4515000283718109,
				-0.09050001949071884,
				-0.09028548002243042
			],
			"type":"VEC3"
		},
		{
			"bufferView":48,
			"componentType":5126,
			"count":32,
			"type":"VEC3"
		},
		{
			"bufferView":49,
			"componentType":5126,
			"count":32,
			"type":"VEC2"
		},
		{
			"bufferView":50,
			"componentType":5126,
			"count":16,
			"max":[
				0.4515000283718109,
				0.09050001949071884,
				0.09028548002243042
			],
			"min":[
				-0.4515000283718109,
				-0.09050001949071884,
				-0.09028548002243042
			],
			"type":"VEC3"
		},
		{
			"bufferView":51,
			"componentType":5126,
			"count":16,
			"type":"VEC3"
		},
		{
			"bufferView":52,
			"componentType":5126,
			"count":16,
			"type":"VEC2"
		},
		{
			"bufferView":53,
			"componentType":5126,
			"count":32,
			"max":[
				0.4515000283718109,
				0.09050001949071884,
				0.09028548002243042
			],
			"min":[
				-0.4515000283718109,
				-0.09050001949071884,
				-0.09028548002243042
			],
			"type":"VEC3"
		},
		{
			"bufferView":54,
			"componentType":5126,
			"count":32,
			"type":"VEC3"
		},
		{
			"bufferView":55,
			"componentType":5126,
			"count":32,
			"type":"VEC2"
		},
		{
			"bufferView":56,
			"componentType":5126,
			"count":16,
			"max":[
				0.4515000283718109,
				0.09050001949071884,
				0.09028548002243042
			],
			"min":[
				-0.4515000283718109,
				-0.09050001949071884,
				-0.09028548002243042
			],
			"type":"VEC3"
		},
		{
			"bufferView":57,
			"componentType":5126,
			"count":16,
			"type":"VEC3"
		},
		{
			"bufferView":58,
			"componentType":5126,
			"count":16,
			"type":"VEC2"
		}
	],
	"bufferViews":[
		{
			"buffer":0,
			"byteLength":240,
			"byteOffset":0,
			"target":34962
		},
		{
			"buffer":0,
			"byteLength":240,
			"byteOffset":240,
			"target":34962
		},
		{
			"buffer":0,
			"byteLength":160,
			"byteOffset":480,
			"target":34962
		},
		{
			"buffer":0,
			"byteLength":60,
			"byteOffset":640,
			"target":34963
		},
		{
			"buffer":0,
			"byteLength":1828,
			"byteOffset":700
		},
		{
			"buffer":0,
			"byteLength":48,
			"byteOffset":2528,
			"target":34962
		},
		{
			"buffer":0,
			"byteLength":48,
			"byteOffset":2576,
			"target":34962
		},
		{
			"buffer":0,
			"byteLength":32,
			"byteOffset":2624,
			"target":34962
		},
		{
			"buffer":0,
			"byteLength":12,
			"byteOffset":2656,
			"target":34963
		},
		{
			"buffer":0,
			"byteLength":1910,
			"byteOffset":2668
		},
		{
			"buffer":0,
			"byteLength":720,
			"byteOffset":4580,
			"target":34962
		},
		{
			"buffer":0,
			"byteLength":720,
			"byteOffset":5300,
			"target":34962
		},
		{
			"buffer":0,
			"byteLength":480,
			"byteOffset":6020,
			"target":34962
		},
		{
			"buffer":0,
			"byteLength":120,
			"byteOffset":6500,
			"target":34963
		},
		{
			"buffer":0,
			"byteLength":1614,
			"byteOffset":6620
		},
		{
			"buffer":0,
			"byteLength":1008,
			"byteOffset":8236,
			"target":34962
		},
		{
			"buffer":0,
			"byteLength":1008,
			"byteOffset":9244,
			"target":34962
		},
		{
			"buffer":0,
			"byteLength":672,
			"byteOffset":10252,
			"target":34962
		},
		{
			"buffer":0,
			"byteLength":240,
			"byteOffset":10924,
			"target":34963
		},
		{
			"buffer":0,
			"byteLength":1743,
			"byteOffset":11164
		},
		{
			"buffer":0,
			"byteLength":2016,
			"byteOffset":12908,
			"target":34962
		},
		{
			"buffer":0,
			"byteLength":2016,
			"byteOffset":14924,
			"target":34962
		},
		{
			"buffer":0,
			"byteLength":1344,
			"byteOffset":16940,
			"target":34962
		},
		{
			"buffer":0,
			"byteLength":576,
			"byteOffset":18284,
			"target":34963
		},
		{
			"buffer":0,
			"byteLength":240,
			"byteOffset":18860,
			"target":34962
		},
		{
			"buffer":0,
			"byteLength":240,
			"byteOffset":19100,
			"target":34962
		},
		{
			"buffer":0,
			"byteLength":160,
			"byteOffset":19340,
			"target":34962
		},
		{
			"buffer":0,
			"byteLength":60,
			"byteOffset":19500,
			"target":34963
		},
		{
			"buffer":0,
			"byteLength":624,
			"byteOffset":19560,
			"target":34962
		},
		{
			"buffer":0,
			"byteLength":624,
			"byteOffset":20184,
			"target":34962
		},
		{
			"buffer":0,
			"byteLength":416,
			"byteOffset":20808,
			"target":34962
		},
		{
			"buffer":0,
			"byteLength":108,
			"byteOffset":21224,
			"target":34963
		},
		{
			"buffer":0,
			"byteLength":1830,
			"byteOffset":21332
		},
		{
			"buffer":0,
			"byteLength":384,
			"byteOffset":23164,
			"target":34962
		},
		{
			"buffer":0,
			"byteLength":384,
			"byteOffset":23548,
			"target":34962
		},
		{
			"buffer":0,
			"byteLength":256,
			"byteOffset":23932,
			"target":34962
		},
		{
			"buffer":0,
			"byteLength":96,
			"byteOffset":24188,
			"target":34963
		},
		{
			"buffer":0,
			"byteLength":192,
			"byteOffset":24284,
			"target":34962
		},
		{
			"buffer":0,
			"byteLength":192,
			"byteOffset":24476,
			"target":34962
		},
		{
			"buffer":0,
			"byteLength":128,
			"byteOffset":24668,
			"target":34962
		},
		{
			"buffer":0,
			"byteLength":72,
			"byteOffset":24796,
			"target":34963
		},
		{
			"buffer":0,
			"byteLength":384,
			"byteOffset":24868,
			"target":34962
		},
		{
			"buffer":0,
			"byteLength":384,
			"byteOffset":25252,
			"target":34962
		},
		{
			"buffer":0,
			"byteLength":256,
			"byteOffset":25636,
			"target":34962
		},
		{
			"buffer":0,
			"byteLength":192,
			"byteOffset":25892,
			"target":34962
		},
		{
			"buffer":0,
			"byteLength":192,
			"byteOffset":26084,
			"target":34962
		},
		{
			"buffer":0,
			"byteLength":128,
			"byteOffset":26276,
			"target":34962
		},
		{
			"buffer":0,
			"byteLength":384,
			"byteOffset":26404,
			"target":34962
		},
		{
			"buffer":0,
			"byteLength":384,
			"byteOffset":26788,
			"target":34962
		},
		{
			"buffer":0,
			"byteLength":256,
			"byteOffset":27172,
			"target":34962
		},
		{
			"buffer":0,
			"byteLength":192,
			"byteOffset":27428,
			"target":34962
		},
		{
			"buffer":0,
			"byteLength":192,
			"byteOffset":27620,
			"target":34962
		},
		{
			"buffer":0,
			"byteLength":128,
			"byteOffset":27812,
			"target":34962
		},
		{
			"buffer":0,
			"byteLength":384,
			"byteOffset":27940,
			"target":34962
		},
		{
			"buffer":0,
			"byteLength":384,
			"byteOffset":28324,
			"target":34962
		},
		{
			"buffer":0,
			"byteLength":256,
			"byteOffset":28708,
			"target":34962
		},
		{
			"buffer":0,
			"byteLength":192,
			"byteOffset":28964,
			"target":34962
		},
		{
			"buffer":0,
			"byteLength":192,
			"byteOffset":29156,
			"target":34962
		},
		{
			"buffer":0,
			"byteLength":128,
			"byteOffset":29348,
			"target":34962
		}
	],
	"samplers":[
		{
			"magFilter":9728,
			"minFilter":9984
		}
	],
	"buffers":[
		{
			"byteLength":29476,
			"uri":"data:application/octet-stream;base64,"
		}
	]
}
